<?xml version="1.0" standalone="no"?>
<!DOCTYPE svg PUBLIC "-//W3C//DTD SVG 20010904//EN"
 "http://www.w3.org/TR/2001/REC-SVG-20010904/DTD/svg10.dtd">
<svg version="1.0" xmlns="http://www.w3.org/2000/svg"
 width="657.000000pt" height="380.000000pt" viewBox="0 0 657.000000 380.000000"
 preserveAspectRatio="xMidYMid meet">

<g transform="translate(0.000000,380.000000) scale(0.100000,-0.100000)"
fill="#000000" stroke="none">
<path d="M2970 3204 c-755 -74 -1403 -340 -1759 -720 -125 -134 -201 -257
-250 -403 -41 -122 -56 -249 -42 -354 11 -83 51 -223 74 -265 12 -21 14 -18
35 55 44 152 73 214 119 258 53 51 99 72 175 80 52 6 59 9 64 33 44 197 107
312 252 457 244 246 711 449 1192 519 216 32 341 38 609 33 278 -5 397 -17
621 -63 257 -53 444 -117 649 -221 353 -181 570 -414 620 -668 l16 -83 35 -6
c19 -3 48 -6 63 -6 40 0 102 -35 132 -74 44 -58 42 -83 -19 -281 -67 -219 -78
-247 -113 -279 -48 -44 -104 -57 -283 -63 l-165 -6 -76 -54 c-42 -29 -82 -53
-88 -53 -6 0 -11 11 -11 25 0 23 -4 25 -40 25 -27 0 -43 -5 -46 -15 -5 -13 -9
-13 -34 0 -15 8 -47 14 -71 14 -24 1 -55 1 -69 1 -14 0 -60 2 -103 5 -43 2
-75 0 -72 -4 6 -11 -20 -33 -28 -25 -10 10 5 -70 15 -83 6 -7 5 -19 -1 -32
-16 -29 -15 -30 35 -52 51 -23 102 -20 129 8 12 11 19 13 27 5 13 -13 -21 -28
-182 -82 -156 -53 -240 -74 -405 -104 -583 -105 -1192 -58 -1712 131 -24 9
-43 20 -43 24 0 5 23 9 50 9 28 0 50 5 50 10 0 6 11 10 25 10 14 0 25 -4 25
-10 0 -15 157 -13 163 3 3 9 7 9 18 1 20 -16 159 -28 159 -15 0 6 9 11 20 11
11 0 20 -4 20 -10 0 -14 167 -13 175 0 5 8 11 7 21 -1 7 -6 33 -12 58 -12 l44
-2 -5 35 c-11 74 -9 105 7 105 12 0 15 -13 13 -70 l-3 -70 55 0 54 0 -6 74
c-6 68 -5 73 13 69 16 -3 19 -12 18 -48 -1 -25 -3 -54 -5 -65 -4 -18 2 -20 75
-23 60 -2 82 1 96 13 15 14 18 14 30 0 8 -9 30 -15 60 -15 54 0 66 7 46 29 -8
9 -26 47 -40 85 -33 87 -41 96 -81 96 -39 0 -49 -11 -64 -67 -17 -63 -31 -63
-31 1 l0 56 -43 0 c-39 0 -43 -3 -43 -22 1 -18 -5 -24 -26 -26 -27 -3 -28 -5
-28 -63 0 -56 -1 -59 -25 -59 -24 0 -25 3 -25 59 0 58 -1 60 -27 63 -22 2 -28
8 -27 26 0 19 -4 22 -43 22 -34 0 -43 -4 -43 -17 0 -14 -4 -13 -24 6 -20 19
-31 22 -60 17 -36 -7 -36 -7 -37 -59 l-1 -52 -23 52 c-25 54 -47 68 -89 57
-17 -4 -29 -17 -36 -40 -14 -42 -28 -43 -41 -5 -13 37 -25 41 -128 46 l-83 4
4 -24 c3 -13 1 -30 -3 -37 -8 -12 -13 10 -12 50 1 13 -39 27 -69 24 -10 0 -18
4 -18 9 0 10 -44 -27 -46 -39 0 -4 -4 -24 -9 -46 -7 -33 -9 -36 -18 -20 -7 13
-7 19 1 22 7 2 -2 18 -21 38 -26 28 -40 35 -79 37 -25 1 -46 0 -45 -3 1 -4
-11 -17 -26 -31 -22 -19 -30 -36 -34 -71 l-6 -47 -28 15 c-16 8 -29 17 -29 20
0 2 11 27 25 54 l25 50 -44 0 c-32 0 -48 -5 -56 -17 -10 -17 -10 -17 -20 0 -8
12 -24 17 -58 17 -37 0 -57 7 -98 35 l-51 35 -257 -2 -257 -3 41 -42 c34 -36
47 -43 79 -43 56 0 91 -31 91 -81 0 -59 -26 -79 -100 -79 l-60 0 0 49 c0 103
-22 140 -76 127 -22 -6 -24 -11 -24 -67 l0 -60 -33 3 c-32 3 -32 4 -37 63 l-5
60 -40 0 -40 0 0 -47 c0 -25 -3 -49 -6 -53 -3 -3 -15 18 -26 47 -20 52 -21 53
-63 53 -42 0 -42 0 -62 -52 -15 -42 -24 -53 -41 -53 -20 1 -21 2 -4 14 44 34
-5 96 -75 96 -102 0 -137 -143 -46 -191 32 -17 191 -12 201 6 11 20 36 19 43
0 6 -14 43 -15 280 -14 174 0 274 5 276 11 2 6 46 -15 97 -46 479 -291 1104
-448 1786 -450 485 0 937 76 1342 227 157 59 294 124 421 199 l102 60 99 0
c86 -1 101 2 120 20 l22 20 23 -21 c20 -18 34 -21 123 -21 77 0 103 3 113 15
16 19 39 19 46 0 5 -12 24 -15 84 -15 78 0 79 0 82 28 l4 27 12 -27 c11 -26
16 -28 68 -28 l57 0 -20 23 c-28 30 -36 62 -22 85 7 11 9 30 5 45 -8 33 -58
50 -136 45 l-55 -3 0 -47 c0 -61 -16 -61 -36 0 -16 47 -16 47 -60 47 l-44 0
-19 -53 c-19 -53 -36 -68 -36 -32 0 33 -27 77 -52 84 -38 10 -73 7 -94 -9 -52
-39 -59 -3 -8 46 116 110 244 318 286 465 31 107 33 332 4 439 -54 199 -183
393 -371 557 -378 332 -980 557 -1666 623 -189 18 -591 18 -779 -1z m-2185
-2157 c8 -12 15 -25 15 -29 0 -12 -38 -9 -59 4 -39 24 -69 -33 -35 -66 14 -15
18 -15 45 1 22 13 32 14 40 6 30 -30 -30 -69 -87 -58 -86 16 -97 134 -15 161
43 14 78 7 96 -19z m1410 19 c24 -10 35 -22 35 -35 0 -23 -20 -27 -49 -9 -30
18 -51 3 -51 -37 0 -38 17 -52 47 -41 12 5 14 9 5 18 -20 20 -13 28 23 28 34
0 35 -1 35 -40 0 -36 -2 -39 -27 -39 -16 0 -42 -3 -60 -6 -26 -6 -36 -2 -57
18 -49 49 -26 134 39 150 11 3 21 5 23 6 1 0 18 -6 37 -13z m2332 -6 c2 0 3
-9 3 -21 0 -16 -4 -19 -17 -14 -34 14 -61 17 -67 6 -4 -6 10 -15 34 -21 62
-17 78 -74 28 -101 -24 -13 -102 -4 -117 14 -18 22 2 39 33 27 15 -5 34 -10
42 -10 28 0 13 16 -28 30 -35 12 -44 20 -46 43 -6 50 36 72 103 55 16 -5 31
-8 32 -8z m181 -13 c14 -13 22 -32 22 -53 0 -46 -9 -63 -41 -79 -43 -23 -77
-18 -110 14 -47 47 -36 111 24 136 38 16 74 10 105 -18z m342 -5 c62 -79 -27
-175 -119 -127 -32 16 -41 33 -41 74 0 80 111 116 160 53z m400 -27 c0 -57 -3
-69 -26 -92 -21 -21 -32 -25 -65 -20 -61 8 -69 20 -69 98 0 67 1 69 25 69 24
0 25 -3 25 -53 0 -29 5 -58 11 -64 17 -17 39 -4 38 21 0 19 -1 19 -10 -4 -10
-23 -11 -24 -21 -7 -7 14 -6 23 6 36 9 10 16 32 16 49 0 30 2 32 35 32 l35 0
0 -65z m140 55 c14 0 40 -30 40 -46 0 -16 -36 -19 -45 -4 -10 17 -44 11 -55
-9 -14 -27 4 -74 28 -69 11 2 16 11 14 26 -3 19 1 22 32 22 35 0 36 -1 36 -40
0 -37 -2 -40 -27 -40 -16 0 -42 -2 -58 -5 -64 -13 -112 62 -81 124 16 30 66
54 94 45 8 -2 17 -4 22 -4z m-4626 -72 c14 -40 26 -76 26 -80 0 -5 -13 -8 -30
-8 -16 0 -30 5 -30 10 0 6 -16 10 -35 10 -19 0 -35 -4 -35 -9 0 -12 -39 -21
-45 -11 -4 7 37 129 51 152 3 4 20 8 38 8 32 0 34 -2 60 -72z m106 13 l0 -60
37 -3 c27 -2 39 -8 41 -20 3 -16 -5 -18 -67 -18 l-71 0 0 80 0 80 30 0 c30 0
30 0 30 -59z m150 -21 l0 -80 -30 0 -30 0 0 80 0 80 30 0 30 0 0 -80z m351 0
c16 -41 29 -75 29 -76 0 -1 -12 -4 -26 -7 -16 -3 -28 0 -31 9 -6 15 -69 20
-75 5 -3 -10 -43 -19 -48 -11 -2 3 9 40 25 83 l28 78 35 -3 c33 -3 36 -6 63
-78z m173 69 c32 -15 50 -66 37 -102 -15 -39 -46 -51 -128 -48 l-33 1 0 80 0
80 50 0 c27 0 60 -5 74 -11z m170 -16 l14 -28 13 28 c9 20 19 27 42 27 l29 0
-31 -55 c-17 -30 -31 -66 -31 -80 0 -20 -5 -25 -25 -25 -20 0 -25 5 -25 26 0
15 -14 51 -31 80 l-30 54 30 0 c23 0 34 -7 45 -27z m493 -38 c38 -99 38 -95 4
-95 -17 0 -31 5 -31 10 0 6 -16 10 -35 10 -19 0 -35 -4 -35 -10 0 -5 -11 -10
-25 -10 -14 0 -25 3 -25 7 0 3 12 40 27 80 28 74 28 74 62 71 33 -3 37 -7 58
-63z m205 48 c22 -20 23 -31 3 -53 -14 -15 -14 -21 0 -53 l15 -37 -31 0 c-25
0 -33 6 -42 30 -6 17 -17 30 -24 30 -8 0 -13 -12 -13 -30 0 -27 -3 -30 -30
-30 l-30 0 0 80 0 80 67 0 c48 0 72 -5 85 -17z m185 -48 c38 -99 38 -95 4 -95
-17 0 -31 5 -31 10 0 6 -15 10 -34 10 -19 0 -38 -4 -41 -10 -3 -5 -17 -10 -29
-10 l-24 0 31 80 31 81 35 -3 c33 -3 36 -7 58 -63z m139 23 l29 -43 3 43 c3
37 6 42 28 42 23 0 24 -2 24 -80 l0 -80 -30 0 c-23 0 -35 8 -52 35 -29 44 -38
44 -38 0 0 -31 -3 -35 -25 -35 -25 0 -25 1 -25 80 l0 80 29 0 c22 0 35 -9 57
-42z m334 -38 l0 -80 -30 0 -30 0 0 80 0 80 30 0 30 0 0 -80z m171 2 c16 -40
27 -77 24 -81 -6 -11 -55 -1 -55 10 0 13 -64 11 -77 -2 -6 -6 -19 -9 -30 -7
-19 3 -18 7 11 81 31 77 31 78 65 75 32 -3 35 -7 62 -76z m1369 19 l0 -60 32
-3 c22 -2 34 -9 36 -20 3 -16 -5 -18 -62 -18 l-66 0 0 80 0 80 30 0 c30 0 30
0 30 -59z m390 -1 l0 -60 35 0 c28 0 35 -4 35 -20 0 -18 -7 -20 -65 -20 l-65
0 0 80 0 80 30 0 30 0 0 -60z m611 -19 c16 -41 26 -77 24 -81 -6 -10 -55 0
-55 11 0 5 -16 9 -35 9 -19 0 -35 -4 -35 -9 0 -5 -11 -11 -25 -13 -32 -7 -32
1 2 90 28 72 28 73 62 70 32 -3 35 -7 62 -77z m204 59 c16 -18 16 -21 2 -44
-15 -22 -15 -28 -2 -60 l15 -36 -30 0 c-23 0 -33 7 -45 30 -17 32 -35 40 -35
14 0 -30 -19 -52 -40 -47 -18 5 -20 14 -20 84 l0 79 68 0 c56 0 72 -4 87 -20z
m-5277 -63 c2 -18 -1 -27 -11 -27 -16 0 -26 27 -19 48 7 21 27 7 30 -21z"/>
<path d="M4617 1023 c-12 -12 -7 -60 7 -72 30 -25 65 25 44 63 -9 16 -39 22
-51 9z m41 -39 c-4 -24 -24 -29 -32 -8 -8 20 13 49 27 35 5 -5 7 -17 5 -27z"/>
<path d="M4957 1024 c-14 -14 -7 -72 9 -78 25 -10 45 14 42 48 -2 22 -9 32
-23 34 -12 2 -24 0 -28 -4z"/>
<path d="M885 1001 c-7 -22 0 -41 16 -41 11 0 12 30 0 49 -7 11 -10 9 -16 -8z"/>
<path d="M1487 989 c-3 -12 0 -22 9 -26 20 -8 27 2 19 26 -8 27 -21 27 -28 0z"/>
<path d="M1670 990 c0 -36 3 -40 25 -40 18 0 26 7 31 25 7 29 -10 55 -37 55
-15 0 -19 -8 -19 -40z"/>
<path d="M2335 997 c-8 -32 0 -46 17 -29 8 8 8 18 1 34 l-11 23 -7 -28z"/>
<path d="M2520 1015 c0 -9 9 -15 25 -15 16 0 25 6 25 15 0 9 -9 15 -25 15 -16
0 -25 -6 -25 -15z"/>
<path d="M2727 1014 c-13 -14 -7 -54 8 -54 16 0 18 14 6 43 -3 10 -10 15 -14
11z"/>
<path d="M3361 992 c-8 -15 -8 -23 0 -28 17 -10 33 11 21 32 -9 16 -10 16 -21
-4z"/>
<path d="M5737 1003 c-13 -12 -7 -43 8 -43 8 0 15 6 15 13 0 18 -15 38 -23 30z"/>
<path d="M5917 1024 c-11 -12 3 -24 29 -24 15 0 24 6 24 15 0 15 -40 21 -53 9z"/>
<path d="M3278 2663 c12 -2 32 -2 45 0 12 2 2 4 -23 4 -25 0 -35 -2 -22 -4z"/>
<path d="M3403 2663 c9 -2 25 -2 35 0 9 3 1 5 -18 5 -19 0 -27 -2 -17 -5z"/>
<path d="M2908 2623 c7 -3 16 -2 19 1 4 3 -2 6 -13 5 -11 0 -14 -3 -6 -6z"/>
<path d="M2222 2140 l3 -235 82 0 c65 0 83 3 85 15 2 8 1 112 -2 230 l-5 215
-83 5 -82 5 2 -235z m158 -5 l0 -215 -70 0 -70 0 0 215 0 215 70 0 70 0 0
-215z"/>
<path d="M2447 2363 c-11 -10 -8 -166 3 -183 7 -10 10 14 10 78 l0 92 89 0 89
0 41 -116 c23 -63 41 -120 41 -125 0 -5 4 -9 9 -9 4 0 18 30 30 68 12 37 31
93 42 125 l21 57 94 0 94 0 0 -215 0 -216 -66 3 -66 3 1 128 c1 70 -2 127 -6
127 -5 0 -28 -59 -52 -130 l-43 -131 -50 3 -51 3 -46 130 -46 130 -3 -132 -3
-133 -59 0 -60 0 0 93 c-1 67 -3 87 -11 75 -5 -10 -9 -55 -7 -100 l3 -83 73
-3 72 -3 0 106 c0 111 10 127 29 50 6 -25 21 -70 32 -101 l21 -55 56 3 57 3
35 100 35 100 5 -100 5 -100 83 -3 82 -3 -2 233 -3 233 -107 3 -106 3 -37
-111 c-20 -60 -40 -110 -45 -110 -5 0 -23 44 -41 98 -17 53 -36 103 -42 110
-10 13 -188 18 -200 5z"/>
<path d="M3074 2357 c-2 -7 -3 -111 -2 -232 l3 -220 82 -3 82 -3 3 78 3 78 80
6 c85 6 114 17 156 55 l25 24 12 -58 c18 -88 101 -172 169 -172 10 0 -4 11
-32 24 -85 40 -128 107 -128 201 0 89 41 157 118 198 61 32 174 31 240 -4 117
-60 151 -225 69 -335 -13 -18 -47 -44 -76 -58 -28 -14 -44 -26 -35 -26 24 0
88 34 108 56 9 11 27 39 39 63 19 38 22 56 18 123 -6 100 -36 149 -117 191
-46 22 -67 27 -130 27 -94 0 -143 -21 -194 -80 -20 -24 -37 -48 -37 -52 0 -5
-4 -6 -10 -3 -5 3 -10 16 -10 27 0 34 -63 85 -120 97 -74 16 -309 15 -316 -2z
m353 -28 c51 -25 73 -61 73 -122 0 -85 -55 -123 -191 -134 l-79 -6 0 -73 0
-74 -70 0 -70 0 0 215 0 215 147 0 c129 0 152 -3 190 -21z"/>
<path d="M3230 2200 l0 -50 46 0 c61 0 84 14 84 50 0 36 -23 50 -84 50 l-46 0
0 -50z m112 16 c20 -29 -13 -58 -61 -54 -31 3 -36 7 -39 32 -2 16 2 32 9 37
16 10 82 -1 91 -15z"/>
<path d="M4040 2138 l0 -234 83 0 82 1 5 80 5 80 29 0 c28 0 31 -4 47 -58 31
-103 32 -104 148 -104 l100 -1 -23 32 c-13 17 -31 55 -40 83 -10 29 -26 63
-36 75 -18 23 -18 23 15 54 67 61 55 149 -25 193 -41 23 -57 25 -217 29 l-173
5 0 -235z m380 190 c61 -31 81 -80 54 -134 -11 -20 -32 -44 -49 -53 -16 -9
-32 -17 -34 -18 -2 -2 8 -12 22 -23 16 -12 33 -41 41 -69 8 -27 22 -63 31 -80
l16 -32 -83 3 -83 3 -26 75 -26 75 -47 3 -46 3 0 -80 0 -81 -70 0 -70 0 0 215
0 215 163 0 c149 0 167 -2 207 -22z"/>
<path d="M4194 2236 c-3 -8 -4 -27 -2 -43 3 -27 6 -28 61 -31 35 -2 64 2 73 9
20 17 17 57 -5 69 -30 16 -121 13 -127 -4z m132 -21 c11 -27 -16 -45 -67 -45
-48 0 -49 1 -49 30 0 30 1 30 55 30 40 0 57 -4 61 -15z"/>
<path d="M2129 2343 c-13 -16 -12 -17 4 -4 9 7 17 15 17 17 0 8 -8 3 -21 -13z"/>
<path d="M2085 2320 c-8 -13 9 -20 24 -11 10 6 9 10 -3 14 -8 3 -18 2 -21 -3z"/>
<path d="M2023 2263 c4 -3 1 -13 -6 -22 -11 -14 -10 -14 5 -2 16 12 16 31 1
31 -4 0 -3 -3 0 -7z"/>
<path d="M3741 2251 c-89 -23 -89 -208 0 -231 66 -17 113 30 113 114 0 83 -48
133 -113 117z m54 -17 c44 -17 59 -116 25 -171 -16 -27 -26 -33 -53 -33 -57 0
-92 64 -76 138 12 59 53 85 104 66z"/>
<path d="M1900 2089 c0 -5 5 -7 10 -4 6 3 10 8 10 11 0 2 -4 4 -10 4 -5 0 -10
-5 -10 -11z"/>
<path d="M1288 1760 c-45 -13 -87 -49 -109 -92 -27 -53 -99 -293 -99 -330 0
-19 10 -40 29 -59 l29 -29 2074 0 c1341 0 2086 4 2109 10 19 6 45 20 56 32 29
32 126 344 118 379 -9 39 -47 76 -91 88 -47 13 -4073 14 -4116 1z m874 -65 c3
-3 3 -17 0 -30 -4 -24 -7 -25 -88 -25 -81 0 -85 -1 -94 -26 -23 -60 -18 -64
74 -64 47 0 87 -4 90 -8 3 -5 2 -18 -1 -30 -5 -21 -11 -22 -94 -22 l-89 0 0
-50 0 -50 90 0 c93 0 100 -3 84 -44 -5 -14 -30 -16 -169 -16 -90 0 -166 3
-168 8 -3 6 1 57 29 310 l5 52 163 0 c89 0 165 -2 168 -5z m671 -2 c2 -5 -2
-68 -9 -142 -10 -98 -11 -138 -3 -148 15 -18 172 -18 187 0 5 6 16 75 23 152
14 135 15 140 38 143 13 2 27 0 32 -5 11 -11 -16 -286 -31 -313 -24 -45 -46
-50 -208 -50 -149 0 -154 1 -177 25 -14 13 -25 36 -25 50 0 38 21 267 25 283
5 13 141 18 148 5z m662 -23 c0 -24 -2 -25 -90 -30 l-90 -5 -3 -42 -3 -43 85
0 86 0 0 -30 0 -30 -89 0 c-97 0 -101 -2 -101 -72 l0 -28 90 0 90 0 0 -30 0
-30 -171 0 -172 0 7 63 c3 34 11 112 17 172 6 61 13 116 15 123 3 10 41 12
166 10 l163 -3 0 -25z m848 22 c3 -4 3 -19 0 -35 -5 -26 -8 -27 -62 -27 l-57
0 -13 -142 c-7 -78 -15 -146 -17 -150 -7 -10 -141 -10 -147 0 -3 4 1 54 9 112
7 58 13 122 14 143 l0 37 -49 0 c-55 0 -66 9 -57 46 l6 24 185 0 c101 0 186
-3 188 -8z m446 -16 c18 -16 21 -30 21 -90 0 -39 -5 -100 -10 -136 -7 -54 -14
-70 -40 -92 -30 -28 -30 -28 -185 -28 -146 0 -155 1 -181 23 l-27 23 8 116
c12 198 26 209 251 205 123 -2 145 -4 163 -21z m-3068 4 c16 -9 19 -22 19 -73
0 -72 -16 -111 -48 -115 -12 -2 -22 -5 -22 -6 0 -2 14 -33 30 -69 17 -37 30
-71 30 -77 0 -7 -29 -10 -81 -8 l-82 3 -26 75 c-23 66 -29 75 -51 75 -18 0
-26 -6 -27 -20 -1 -11 -5 -46 -8 -77 l-6 -58 -75 0 c-88 0 -81 -22 -57 203
l17 157 183 0 c108 0 192 -4 204 -10z m889 -10 c17 -17 19 -29 14 -78 -12
-120 -28 -132 -173 -132 l-98 0 -7 -37 c-3 -21 -6 -50 -6 -65 l0 -28 -76 0
-77 0 7 78 c4 42 11 123 18 180 l11 102 183 0 c171 0 185 -1 204 -20z m1301
-7 l-7 -28 -107 -3 c-106 -3 -107 -3 -107 -27 0 -25 1 -25 93 -25 119 0 132
-8 129 -81 -3 -94 -12 -128 -39 -149 -23 -18 -41 -20 -184 -20 l-159 0 0 30 0
29 113 3 112 3 0 25 c0 25 -1 25 -96 28 -129 4 -134 9 -121 123 15 120 14 119
217 119 l163 0 -7 -27z m1329 2 c0 -30 -14 -34 -135 -38 -83 -2 -90 -4 -90
-22 0 -18 8 -20 96 -25 128 -7 133 -11 124 -109 -8 -88 -19 -115 -52 -130 -14
-7 -87 -11 -178 -11 -141 0 -155 2 -155 18 0 36 14 41 120 44 l105 3 3 28 3
27 -93 0 c-129 0 -133 4 -125 110 5 66 11 88 29 107 21 22 27 23 185 23 l163
0 0 -25z"/>
<path d="M4535 1598 c-3 -18 -6 -71 -8 -118 l-2 -85 53 -3 c47 -3 53 -1 61 21
5 14 13 68 17 121 l7 96 -61 0 c-61 0 -61 0 -67 -32z"/>
<path d="M1480 1613 c0 -10 -3 -28 -6 -40 -6 -22 -3 -23 49 -23 53 0 55 1 61
31 3 17 6 35 6 40 0 5 -25 9 -55 9 -46 0 -55 -3 -55 -17z"/>
<path d="M2366 1608 c-3 -13 -6 -38 -6 -55 0 -32 1 -33 43 -33 24 0 48 5 55
12 7 7 12 31 12 55 l0 43 -49 0 c-42 0 -49 -3 -55 -22z"/>
<path d="M4280 1093 c-19 -3 -37 -9 -40 -14 -4 -5 -29 -5 -62 0 -30 5 -74 7
-97 4 -35 -5 -41 -9 -41 -30 0 -14 -4 -21 -10 -18 -5 3 -10 15 -10 26 0 10 -4
19 -10 19 -15 0 -12 -103 3 -124 8 -11 19 -15 30 -10 13 5 17 19 17 65 0 56 1
59 25 59 24 0 25 -2 25 -64 0 -45 -5 -69 -16 -80 -32 -33 -96 -33 -128 0 -11
11 -16 36 -17 82 l-1 67 -12 -50 c-6 -27 -15 -56 -19 -62 -5 -7 -4 -13 0 -13
5 0 13 -10 18 -22 15 -34 53 -49 105 -43 25 3 73 5 108 5 50 -1 62 2 62 14 0
20 16 21 24 1 3 -10 19 -15 44 -15 l39 0 8 53 c12 76 12 150 0 152 -5 1 -26 0
-45 -2z m-55 -66 l30 -42 3 43 c3 37 6 42 28 42 23 0 24 -2 24 -80 l0 -80 -27
0 c-20 0 -37 11 -60 37 l-32 38 -1 -37 c0 -34 -3 -38 -25 -38 -25 0 -25 1 -25
80 l0 80 28 0 c20 -1 34 -11 57 -43z"/>
<path d="M3536 1077 c-16 -12 -18 -24 -14 -78 3 -35 2 -78 -2 -95 -7 -28 -5
-31 12 -26 11 3 24 -1 29 -9 7 -11 9 -11 9 -1 0 10 14 13 48 12 26 -1 73 -1
106 -1 50 1 57 3 52 18 -6 16 -5 16 11 1 10 -9 40 -18 66 -20 l49 -3 -6 50
c-3 27 -9 75 -14 105 l-9 55 -2 -86 c0 -47 -3 -88 -6 -91 -15 -14 -58 9 -85
45 l-30 41 0 -42 c0 -38 -2 -42 -25 -42 -25 0 -25 1 -25 80 l0 80 29 0 c22 0
35 -9 57 -42 l29 -43 5 45 c6 53 3 61 -15 37 -11 -15 -14 -15 -25 -2 -9 11
-30 15 -74 14 -33 -1 -53 -3 -43 -6 33 -9 15 -38 -26 -41 -44 -4 -50 -22 -7
-22 23 0 30 -4 30 -20 0 -16 -7 -20 -30 -20 -16 0 -30 -4 -30 -10 0 -5 16 -10
35 -10 23 0 38 -6 42 -15 8 -24 0 -27 -69 -28 l-63 -1 -3 82 -3 82 48 1 c39 1
43 2 23 9 -38 12 -54 11 -74 -3z"/>
<path d="M1300 966 c0 -18 35 -22 46 -4 4 7 3 8 -5 4 -6 -4 -18 -2 -26 4 -12
10 -15 9 -15 -4z"/>
<path d="M3290 859 c0 -5 5 -7 10 -4 6 3 10 8 10 11 0 2 -4 4 -10 4 -5 0 -10
-5 -10 -11z"/>
</g>
</svg>
